



Screens : 



 
http://www.shotpix.com/images/33723271801683199243.jpeg
 
http://www.shotpix.com/images/36164547299419010331.jpg




Extra Screens : 



 
http://www.shotpix.com/images/35332495399774863606.jpg
 
http://www.shotpix.com/images/17044165594141189178.jpg
 
http://www.shotpix.com/images/50211513653202934274.jpg
 
http://www.shotpix.com/images/07208663467006588520.jpg




Media Info :




Format                           : AVI
Format/Info                      : Audio Video Interleave
File size                        : 700 MiB
Duration                         : 2h 19mn
Overall bit rate                 : 703 Kbps

Video
ID                               : 0
Format                           : MPEG-4 Visual
Format profile                   : Advanced Simple@L5
Format settings, BVOP            : 1
Format settings, QPel            : No
Format settings, GMC             : No warppoints
Format settings, Matrix          : Custom
Codec ID                         : XVID
Codec ID/Hint                    : XviD
Duration                         : 2h 19mn
Bit rate                         : 573 Kbps
Width                            : 528 pixels
Height                           : 240 pixels
Display aspect ratio             : 2.2:1
Frame rate                       : 23.976 fps
Color space                      : YUV
Chroma subsampling               : 4:2:0
Bit depth                        : 8 bits
Scan type                        : Progressive
Compression mode                 : Lossy
Bits/(Pixel*Frame)               : 0.189
Stream size                      : 571 MiB (82%)

Audio
ID                               : 1
Format                           : MPEG Audio
Format version                   : Version 1
Format profile                   : Layer 3
Mode                             : Joint stereo
Mode extension                   : MS Stereo
Codec ID                         : 55
Codec ID/Hint                    : MP3
Duration                         : 2h 19mn
Bit rate mode                    : Variable
Bit rate                         : 117 Kbps
Nominal bit rate                 : 128 Kbps
Channel(s)                       : 2 channels
Sampling rate                    : 48.0 KHz
Compression mode                 : Lossy
Stream size                      : 117 MiB (17%)
Alignment                        : Aligned on interleaves
Interleave, duration             : 24 ms (0.58 video frame)




